<mxfile host="Electron" modified="2024-05-15T08:48:52.667Z" agent="Mozilla/5.0 (Windows NT 10.0; Win64; x64) AppleWebKit/537.36 (KHTML, like Gecko) draw.io/24.1.0 Chrome/120.0.6099.109 Electron/28.1.0 Safari/537.36" etag="OL4MCtqsL8xSyBfLlFOY" version="24.1.0" type="device">
  <diagram name="Page-1" id="74e2e168-ea6b-b213-b513-2b3c1d86103e">
    <mxGraphModel dx="2036" dy="1040" grid="1" gridSize="10" guides="1" tooltips="1" connect="1" arrows="1" fold="1" page="1" pageScale="1" pageWidth="1100" pageHeight="850" background="none" math="0" shadow="0">
      <root>
        <mxCell id="0" />
        <mxCell id="1" parent="0" />
        <mxCell id="m0eHRfGt-rSkYaeha5d_-1" value="" style="ellipse;whiteSpace=wrap;html=1;" vertex="1" parent="1">
          <mxGeometry x="280" y="150" width="20" height="20" as="geometry" />
        </mxCell>
        <mxCell id="m0eHRfGt-rSkYaeha5d_-5" style="edgeStyle=orthogonalEdgeStyle;rounded=0;orthogonalLoop=1;jettySize=auto;html=1;entryX=0.424;entryY=-0.03;entryDx=0;entryDy=0;entryPerimeter=0;" edge="1" parent="1" source="m0eHRfGt-rSkYaeha5d_-1">
          <mxGeometry relative="1" as="geometry">
            <mxPoint x="290.8799999999999" y="228.20000000000005" as="targetPoint" />
            <Array as="points">
              <mxPoint x="290" y="180" />
              <mxPoint x="291" y="180" />
            </Array>
          </mxGeometry>
        </mxCell>
        <mxCell id="m0eHRfGt-rSkYaeha5d_-16" style="edgeStyle=orthogonalEdgeStyle;rounded=0;orthogonalLoop=1;jettySize=auto;html=1;entryX=0.5;entryY=0;entryDx=0;entryDy=0;" edge="1" parent="1" source="m0eHRfGt-rSkYaeha5d_-6" target="m0eHRfGt-rSkYaeha5d_-44">
          <mxGeometry relative="1" as="geometry">
            <mxPoint x="290" y="530" as="targetPoint" />
          </mxGeometry>
        </mxCell>
        <mxCell id="m0eHRfGt-rSkYaeha5d_-18" value="True" style="edgeLabel;html=1;align=center;verticalAlign=middle;resizable=0;points=[];" vertex="1" connectable="0" parent="m0eHRfGt-rSkYaeha5d_-16">
          <mxGeometry x="-0.2252" y="1" relative="1" as="geometry">
            <mxPoint as="offset" />
          </mxGeometry>
        </mxCell>
        <mxCell id="m0eHRfGt-rSkYaeha5d_-105" style="edgeStyle=orthogonalEdgeStyle;rounded=0;orthogonalLoop=1;jettySize=auto;html=1;entryX=0;entryY=0.5;entryDx=0;entryDy=0;entryPerimeter=0;" edge="1" parent="1" source="m0eHRfGt-rSkYaeha5d_-6" target="m0eHRfGt-rSkYaeha5d_-70">
          <mxGeometry relative="1" as="geometry">
            <mxPoint x="640" y="350" as="targetPoint" />
          </mxGeometry>
        </mxCell>
        <mxCell id="m0eHRfGt-rSkYaeha5d_-106" value="FALSE" style="edgeLabel;html=1;align=center;verticalAlign=middle;resizable=0;points=[];" vertex="1" connectable="0" parent="m0eHRfGt-rSkYaeha5d_-105">
          <mxGeometry x="0.0083" y="2" relative="1" as="geometry">
            <mxPoint as="offset" />
          </mxGeometry>
        </mxCell>
        <mxCell id="m0eHRfGt-rSkYaeha5d_-6" value="&lt;font style=&quot;font-size: 8px;&quot;&gt;top -button pressed&lt;/font&gt;&lt;div&gt;&lt;font style=&quot;font-size: 8px;&quot;&gt;or EN command rcd&lt;/font&gt;&lt;/div&gt;&lt;div&gt;&lt;font style=&quot;font-size: 8px;&quot;&gt;(First time)&lt;/font&gt;&lt;/div&gt;" style="rhombus;whiteSpace=wrap;html=1;" vertex="1" parent="1">
          <mxGeometry x="240" y="340" width="100" height="100" as="geometry" />
        </mxCell>
        <mxCell id="m0eHRfGt-rSkYaeha5d_-10" style="edgeStyle=orthogonalEdgeStyle;rounded=0;orthogonalLoop=1;jettySize=auto;html=1;entryX=0.5;entryY=0;entryDx=0;entryDy=0;" edge="1" parent="1" source="m0eHRfGt-rSkYaeha5d_-9" target="m0eHRfGt-rSkYaeha5d_-6">
          <mxGeometry relative="1" as="geometry" />
        </mxCell>
        <mxCell id="m0eHRfGt-rSkYaeha5d_-9" value="&lt;font style=&quot;font-size: 8px;&quot;&gt;Default system state&lt;/font&gt;" style="rounded=1;whiteSpace=wrap;html=1;" vertex="1" parent="1">
          <mxGeometry x="240" y="230" width="100" height="50" as="geometry" />
        </mxCell>
        <mxCell id="m0eHRfGt-rSkYaeha5d_-20" value="" style="edgeStyle=orthogonalEdgeStyle;rounded=0;orthogonalLoop=1;jettySize=auto;html=1;" edge="1" parent="1" source="m0eHRfGt-rSkYaeha5d_-17" target="m0eHRfGt-rSkYaeha5d_-19">
          <mxGeometry relative="1" as="geometry" />
        </mxCell>
        <mxCell id="m0eHRfGt-rSkYaeha5d_-17" value="Capture current time&lt;div&gt;Turn LED D3 on&lt;/div&gt;" style="rounded=1;whiteSpace=wrap;html=1;" vertex="1" parent="1">
          <mxGeometry x="230" y="760" width="120" height="60" as="geometry" />
        </mxCell>
        <mxCell id="m0eHRfGt-rSkYaeha5d_-27" style="edgeStyle=orthogonalEdgeStyle;rounded=0;orthogonalLoop=1;jettySize=auto;html=1;exitX=0.5;exitY=1;exitDx=0;exitDy=0;entryX=0.5;entryY=0;entryDx=0;entryDy=0;" edge="1" parent="1" source="m0eHRfGt-rSkYaeha5d_-19" target="m0eHRfGt-rSkYaeha5d_-28">
          <mxGeometry relative="1" as="geometry">
            <mxPoint x="290" y="990" as="targetPoint" />
          </mxGeometry>
        </mxCell>
        <mxCell id="m0eHRfGt-rSkYaeha5d_-31" value="TRUE&lt;div&gt;&lt;br&gt;&lt;/div&gt;" style="edgeLabel;html=1;align=center;verticalAlign=middle;resizable=0;points=[];" vertex="1" connectable="0" parent="m0eHRfGt-rSkYaeha5d_-27">
          <mxGeometry x="0.0337" relative="1" as="geometry">
            <mxPoint as="offset" />
          </mxGeometry>
        </mxCell>
        <mxCell id="m0eHRfGt-rSkYaeha5d_-19" value="&lt;font style=&quot;font-size: 8px;&quot;&gt;50ms passed&lt;/font&gt;" style="rhombus;whiteSpace=wrap;html=1;" vertex="1" parent="1">
          <mxGeometry x="250" y="880" width="80" height="80" as="geometry" />
        </mxCell>
        <mxCell id="m0eHRfGt-rSkYaeha5d_-24" value="" style="endArrow=classic;html=1;rounded=0;entryX=1;entryY=0.5;entryDx=0;entryDy=0;" edge="1" parent="1" target="m0eHRfGt-rSkYaeha5d_-17">
          <mxGeometry width="50" height="50" relative="1" as="geometry">
            <mxPoint x="410" y="920" as="sourcePoint" />
            <mxPoint x="450" y="780" as="targetPoint" />
            <Array as="points">
              <mxPoint x="410" y="790" />
            </Array>
          </mxGeometry>
        </mxCell>
        <mxCell id="m0eHRfGt-rSkYaeha5d_-26" value="false" style="edgeLabel;html=1;align=center;verticalAlign=middle;resizable=0;points=[];" vertex="1" connectable="0" parent="m0eHRfGt-rSkYaeha5d_-24">
          <mxGeometry x="-0.5024" y="-3" relative="1" as="geometry">
            <mxPoint as="offset" />
          </mxGeometry>
        </mxCell>
        <mxCell id="m0eHRfGt-rSkYaeha5d_-25" value="" style="endArrow=none;html=1;rounded=0;" edge="1" parent="1">
          <mxGeometry width="50" height="50" relative="1" as="geometry">
            <mxPoint x="330" y="920" as="sourcePoint" />
            <mxPoint x="410" y="920" as="targetPoint" />
            <Array as="points" />
          </mxGeometry>
        </mxCell>
        <mxCell id="m0eHRfGt-rSkYaeha5d_-33" style="edgeStyle=orthogonalEdgeStyle;rounded=0;orthogonalLoop=1;jettySize=auto;html=1;" edge="1" parent="1" source="m0eHRfGt-rSkYaeha5d_-28">
          <mxGeometry relative="1" as="geometry">
            <mxPoint x="290" y="1130" as="targetPoint" />
          </mxGeometry>
        </mxCell>
        <mxCell id="m0eHRfGt-rSkYaeha5d_-28" value="Turn/keep LED D3 OFF&lt;div&gt;Capture current time&lt;/div&gt;" style="rounded=1;whiteSpace=wrap;html=1;" vertex="1" parent="1">
          <mxGeometry x="230" y="1010" width="120" height="50" as="geometry" />
        </mxCell>
        <mxCell id="m0eHRfGt-rSkYaeha5d_-34" value="50ms passed" style="rhombus;whiteSpace=wrap;html=1;" vertex="1" parent="1">
          <mxGeometry x="240" y="1130" width="100" height="100" as="geometry" />
        </mxCell>
        <mxCell id="m0eHRfGt-rSkYaeha5d_-36" value="" style="endArrow=classic;html=1;rounded=0;entryX=1.068;entryY=0.564;entryDx=0;entryDy=0;entryPerimeter=0;exitX=1;exitY=0.5;exitDx=0;exitDy=0;" edge="1" parent="1" source="m0eHRfGt-rSkYaeha5d_-34" target="m0eHRfGt-rSkYaeha5d_-28">
          <mxGeometry width="50" height="50" relative="1" as="geometry">
            <mxPoint x="380" y="1250" as="sourcePoint" />
            <mxPoint x="380" y="1040" as="targetPoint" />
            <Array as="points">
              <mxPoint x="420" y="1180" />
              <mxPoint x="420" y="1038" />
            </Array>
          </mxGeometry>
        </mxCell>
        <mxCell id="m0eHRfGt-rSkYaeha5d_-37" value="FALSE" style="edgeLabel;html=1;align=center;verticalAlign=middle;resizable=0;points=[];" vertex="1" connectable="0" parent="m0eHRfGt-rSkYaeha5d_-36">
          <mxGeometry x="0.0246" relative="1" as="geometry">
            <mxPoint as="offset" />
          </mxGeometry>
        </mxCell>
        <mxCell id="m0eHRfGt-rSkYaeha5d_-38" value="" style="endArrow=classic;html=1;rounded=0;exitX=-0.117;exitY=0.53;exitDx=0;exitDy=0;exitPerimeter=0;" edge="1" parent="1" source="m0eHRfGt-rSkYaeha5d_-34">
          <mxGeometry width="50" height="50" relative="1" as="geometry">
            <mxPoint x="180" y="1210" as="sourcePoint" />
            <mxPoint x="220" y="790" as="targetPoint" />
            <Array as="points">
              <mxPoint x="150" y="1183" />
              <mxPoint x="150" y="1080" />
              <mxPoint x="150" y="790" />
            </Array>
          </mxGeometry>
        </mxCell>
        <mxCell id="m0eHRfGt-rSkYaeha5d_-39" value="TRUE" style="edgeLabel;html=1;align=center;verticalAlign=middle;resizable=0;points=[];" vertex="1" connectable="0" parent="m0eHRfGt-rSkYaeha5d_-38">
          <mxGeometry x="0.0184" y="-4" relative="1" as="geometry">
            <mxPoint as="offset" />
          </mxGeometry>
        </mxCell>
        <mxCell id="m0eHRfGt-rSkYaeha5d_-45" value="" style="edgeStyle=orthogonalEdgeStyle;rounded=0;orthogonalLoop=1;jettySize=auto;html=1;" edge="1" parent="1" source="m0eHRfGt-rSkYaeha5d_-44" target="m0eHRfGt-rSkYaeha5d_-17">
          <mxGeometry relative="1" as="geometry" />
        </mxCell>
        <mxCell id="m0eHRfGt-rSkYaeha5d_-46" value="FALSE" style="edgeLabel;html=1;align=center;verticalAlign=middle;resizable=0;points=[];" vertex="1" connectable="0" parent="m0eHRfGt-rSkYaeha5d_-45">
          <mxGeometry x="-0.196" y="-2" relative="1" as="geometry">
            <mxPoint as="offset" />
          </mxGeometry>
        </mxCell>
        <mxCell id="m0eHRfGt-rSkYaeha5d_-48" value="" style="edgeStyle=orthogonalEdgeStyle;rounded=0;orthogonalLoop=1;jettySize=auto;html=1;" edge="1" parent="1" source="m0eHRfGt-rSkYaeha5d_-44" target="m0eHRfGt-rSkYaeha5d_-47">
          <mxGeometry relative="1" as="geometry" />
        </mxCell>
        <mxCell id="m0eHRfGt-rSkYaeha5d_-44" value="&lt;font style=&quot;font-size: 8px;&quot;&gt;top -button pressed&lt;/font&gt;&lt;div&gt;&lt;font style=&quot;font-size: 8px;&quot;&gt;or EN command rcd&lt;/font&gt;&lt;/div&gt;&lt;div&gt;&lt;font style=&quot;font-size: 8px;&quot;&gt;(second time)&lt;/font&gt;&lt;/div&gt;" style="rhombus;whiteSpace=wrap;html=1;" vertex="1" parent="1">
          <mxGeometry x="235" y="540" width="110" height="100" as="geometry" />
        </mxCell>
        <mxCell id="m0eHRfGt-rSkYaeha5d_-47" value="stop flashing D3:&lt;div&gt;keep led on&lt;/div&gt;" style="whiteSpace=wrap;html=1;" vertex="1" parent="1">
          <mxGeometry x="40" y="560" width="120" height="60" as="geometry" />
        </mxCell>
        <mxCell id="m0eHRfGt-rSkYaeha5d_-49" style="edgeStyle=orthogonalEdgeStyle;rounded=0;orthogonalLoop=1;jettySize=auto;html=1;" edge="1" parent="1">
          <mxGeometry relative="1" as="geometry">
            <mxPoint x="700" y="495" as="targetPoint" />
            <mxPoint x="700" y="405" as="sourcePoint" />
          </mxGeometry>
        </mxCell>
        <mxCell id="m0eHRfGt-rSkYaeha5d_-50" value="True" style="edgeLabel;html=1;align=center;verticalAlign=middle;resizable=0;points=[];" vertex="1" connectable="0" parent="m0eHRfGt-rSkYaeha5d_-49">
          <mxGeometry x="-0.2252" y="1" relative="1" as="geometry">
            <mxPoint as="offset" />
          </mxGeometry>
        </mxCell>
        <mxCell id="m0eHRfGt-rSkYaeha5d_-51" value="" style="edgeStyle=orthogonalEdgeStyle;rounded=0;orthogonalLoop=1;jettySize=auto;html=1;" edge="1" parent="1" source="m0eHRfGt-rSkYaeha5d_-52" target="m0eHRfGt-rSkYaeha5d_-55">
          <mxGeometry relative="1" as="geometry" />
        </mxCell>
        <mxCell id="m0eHRfGt-rSkYaeha5d_-52" value="Capture current time&lt;div&gt;Turn LED D2 on&lt;/div&gt;" style="rounded=1;whiteSpace=wrap;html=1;" vertex="1" parent="1">
          <mxGeometry x="640" y="725" width="120" height="60" as="geometry" />
        </mxCell>
        <mxCell id="m0eHRfGt-rSkYaeha5d_-53" style="edgeStyle=orthogonalEdgeStyle;rounded=0;orthogonalLoop=1;jettySize=auto;html=1;exitX=0.5;exitY=1;exitDx=0;exitDy=0;entryX=0.5;entryY=0;entryDx=0;entryDy=0;" edge="1" parent="1" source="m0eHRfGt-rSkYaeha5d_-55" target="m0eHRfGt-rSkYaeha5d_-60">
          <mxGeometry relative="1" as="geometry">
            <mxPoint x="700" y="955" as="targetPoint" />
          </mxGeometry>
        </mxCell>
        <mxCell id="m0eHRfGt-rSkYaeha5d_-54" value="TRUE&lt;div&gt;&lt;br&gt;&lt;/div&gt;" style="edgeLabel;html=1;align=center;verticalAlign=middle;resizable=0;points=[];" vertex="1" connectable="0" parent="m0eHRfGt-rSkYaeha5d_-53">
          <mxGeometry x="0.0337" relative="1" as="geometry">
            <mxPoint as="offset" />
          </mxGeometry>
        </mxCell>
        <mxCell id="m0eHRfGt-rSkYaeha5d_-55" value="&lt;font style=&quot;font-size: 8px;&quot;&gt;100ms passed&lt;/font&gt;" style="rhombus;whiteSpace=wrap;html=1;" vertex="1" parent="1">
          <mxGeometry x="660" y="845" width="80" height="80" as="geometry" />
        </mxCell>
        <mxCell id="m0eHRfGt-rSkYaeha5d_-56" value="" style="endArrow=classic;html=1;rounded=0;entryX=1;entryY=0.5;entryDx=0;entryDy=0;" edge="1" parent="1" target="m0eHRfGt-rSkYaeha5d_-52">
          <mxGeometry width="50" height="50" relative="1" as="geometry">
            <mxPoint x="820" y="885" as="sourcePoint" />
            <mxPoint x="860" y="745" as="targetPoint" />
            <Array as="points">
              <mxPoint x="820" y="755" />
            </Array>
          </mxGeometry>
        </mxCell>
        <mxCell id="m0eHRfGt-rSkYaeha5d_-57" value="false" style="edgeLabel;html=1;align=center;verticalAlign=middle;resizable=0;points=[];" vertex="1" connectable="0" parent="m0eHRfGt-rSkYaeha5d_-56">
          <mxGeometry x="-0.5024" y="-3" relative="1" as="geometry">
            <mxPoint as="offset" />
          </mxGeometry>
        </mxCell>
        <mxCell id="m0eHRfGt-rSkYaeha5d_-58" value="" style="endArrow=none;html=1;rounded=0;" edge="1" parent="1">
          <mxGeometry width="50" height="50" relative="1" as="geometry">
            <mxPoint x="740" y="885" as="sourcePoint" />
            <mxPoint x="820" y="885" as="targetPoint" />
            <Array as="points" />
          </mxGeometry>
        </mxCell>
        <mxCell id="m0eHRfGt-rSkYaeha5d_-59" style="edgeStyle=orthogonalEdgeStyle;rounded=0;orthogonalLoop=1;jettySize=auto;html=1;" edge="1" parent="1" source="m0eHRfGt-rSkYaeha5d_-60">
          <mxGeometry relative="1" as="geometry">
            <mxPoint x="700" y="1095" as="targetPoint" />
          </mxGeometry>
        </mxCell>
        <mxCell id="m0eHRfGt-rSkYaeha5d_-60" value="Turn/keep LED D2 OFF&lt;div&gt;Capture current time&lt;/div&gt;" style="rounded=1;whiteSpace=wrap;html=1;" vertex="1" parent="1">
          <mxGeometry x="640" y="975" width="120" height="50" as="geometry" />
        </mxCell>
        <mxCell id="m0eHRfGt-rSkYaeha5d_-61" value="100ms passed" style="rhombus;whiteSpace=wrap;html=1;" vertex="1" parent="1">
          <mxGeometry x="650" y="1095" width="100" height="100" as="geometry" />
        </mxCell>
        <mxCell id="m0eHRfGt-rSkYaeha5d_-62" value="" style="endArrow=classic;html=1;rounded=0;entryX=1.068;entryY=0.564;entryDx=0;entryDy=0;entryPerimeter=0;exitX=1;exitY=0.5;exitDx=0;exitDy=0;" edge="1" parent="1" source="m0eHRfGt-rSkYaeha5d_-61" target="m0eHRfGt-rSkYaeha5d_-60">
          <mxGeometry width="50" height="50" relative="1" as="geometry">
            <mxPoint x="790" y="1215" as="sourcePoint" />
            <mxPoint x="790" y="1005" as="targetPoint" />
            <Array as="points">
              <mxPoint x="850" y="1145" />
              <mxPoint x="850" y="1005" />
            </Array>
          </mxGeometry>
        </mxCell>
        <mxCell id="m0eHRfGt-rSkYaeha5d_-63" value="FALSE" style="edgeLabel;html=1;align=center;verticalAlign=middle;resizable=0;points=[];" vertex="1" connectable="0" parent="m0eHRfGt-rSkYaeha5d_-62">
          <mxGeometry x="0.0246" relative="1" as="geometry">
            <mxPoint as="offset" />
          </mxGeometry>
        </mxCell>
        <mxCell id="m0eHRfGt-rSkYaeha5d_-64" value="" style="endArrow=classic;html=1;rounded=0;exitX=0;exitY=0.5;exitDx=0;exitDy=0;entryX=0;entryY=0.5;entryDx=0;entryDy=0;" edge="1" parent="1" source="m0eHRfGt-rSkYaeha5d_-61" target="m0eHRfGt-rSkYaeha5d_-52">
          <mxGeometry width="50" height="50" relative="1" as="geometry">
            <mxPoint x="540" y="1175" as="sourcePoint" />
            <mxPoint x="580" y="755" as="targetPoint" />
            <Array as="points">
              <mxPoint x="570" y="1145" />
              <mxPoint x="570" y="755" />
            </Array>
          </mxGeometry>
        </mxCell>
        <mxCell id="m0eHRfGt-rSkYaeha5d_-65" value="TRUE" style="edgeLabel;html=1;align=center;verticalAlign=middle;resizable=0;points=[];" vertex="1" connectable="0" parent="m0eHRfGt-rSkYaeha5d_-64">
          <mxGeometry x="0.0184" y="-4" relative="1" as="geometry">
            <mxPoint as="offset" />
          </mxGeometry>
        </mxCell>
        <mxCell id="m0eHRfGt-rSkYaeha5d_-66" value="" style="edgeStyle=orthogonalEdgeStyle;rounded=0;orthogonalLoop=1;jettySize=auto;html=1;" edge="1" parent="1" source="m0eHRfGt-rSkYaeha5d_-69" target="m0eHRfGt-rSkYaeha5d_-52">
          <mxGeometry relative="1" as="geometry" />
        </mxCell>
        <mxCell id="m0eHRfGt-rSkYaeha5d_-67" value="FALSE" style="edgeLabel;html=1;align=center;verticalAlign=middle;resizable=0;points=[];" vertex="1" connectable="0" parent="m0eHRfGt-rSkYaeha5d_-66">
          <mxGeometry x="-0.196" y="-2" relative="1" as="geometry">
            <mxPoint as="offset" />
          </mxGeometry>
        </mxCell>
        <mxCell id="m0eHRfGt-rSkYaeha5d_-77" value="" style="edgeStyle=orthogonalEdgeStyle;rounded=0;orthogonalLoop=1;jettySize=auto;html=1;" edge="1" parent="1" source="m0eHRfGt-rSkYaeha5d_-69" target="m0eHRfGt-rSkYaeha5d_-71">
          <mxGeometry relative="1" as="geometry" />
        </mxCell>
        <mxCell id="m0eHRfGt-rSkYaeha5d_-69" value="&lt;font style=&quot;font-size: 8px;&quot;&gt;bottom-button pressed&lt;/font&gt;&lt;div&gt;&lt;font style=&quot;font-size: 8px;&quot;&gt;or SP command rcvd&lt;/font&gt;&lt;/div&gt;&lt;div&gt;&lt;font style=&quot;font-size: 8px;&quot;&gt;(second time)&lt;/font&gt;&lt;/div&gt;" style="rhombus;whiteSpace=wrap;html=1;" vertex="1" parent="1">
          <mxGeometry x="645" y="505" width="110" height="100" as="geometry" />
        </mxCell>
        <mxCell id="m0eHRfGt-rSkYaeha5d_-70" value="&lt;font style=&quot;font-size: 8px;&quot;&gt;bottom-button pressed&lt;/font&gt;&lt;div&gt;&lt;font style=&quot;font-size: 8px;&quot;&gt;or SP command rcd&lt;/font&gt;&lt;/div&gt;&lt;div&gt;&lt;font style=&quot;font-size: 8px;&quot;&gt;(First time)&lt;/font&gt;&lt;/div&gt;" style="rhombus;whiteSpace=wrap;html=1;" vertex="1" parent="1">
          <mxGeometry x="650" y="300" width="100" height="100" as="geometry" />
        </mxCell>
        <mxCell id="m0eHRfGt-rSkYaeha5d_-71" value="stop flashing D2:&lt;div&gt;keep led on&lt;/div&gt;" style="whiteSpace=wrap;html=1;" vertex="1" parent="1">
          <mxGeometry x="490" y="525" width="120" height="60" as="geometry" />
        </mxCell>
        <mxCell id="m0eHRfGt-rSkYaeha5d_-80" style="edgeStyle=orthogonalEdgeStyle;rounded=0;orthogonalLoop=1;jettySize=auto;html=1;" edge="1" parent="1">
          <mxGeometry relative="1" as="geometry">
            <mxPoint x="1150" y="485" as="targetPoint" />
            <mxPoint x="1150" y="395" as="sourcePoint" />
          </mxGeometry>
        </mxCell>
        <mxCell id="m0eHRfGt-rSkYaeha5d_-81" value="True" style="edgeLabel;html=1;align=center;verticalAlign=middle;resizable=0;points=[];" vertex="1" connectable="0" parent="m0eHRfGt-rSkYaeha5d_-80">
          <mxGeometry x="-0.2252" y="1" relative="1" as="geometry">
            <mxPoint as="offset" />
          </mxGeometry>
        </mxCell>
        <mxCell id="m0eHRfGt-rSkYaeha5d_-99" value="" style="edgeStyle=orthogonalEdgeStyle;rounded=0;orthogonalLoop=1;jettySize=auto;html=1;" edge="1" parent="1" target="m0eHRfGt-rSkYaeha5d_-102">
          <mxGeometry relative="1" as="geometry">
            <mxPoint x="1080" y="520" as="sourcePoint" />
            <Array as="points">
              <mxPoint x="1013" y="526" />
              <mxPoint x="1013" y="518" />
            </Array>
          </mxGeometry>
        </mxCell>
        <mxCell id="m0eHRfGt-rSkYaeha5d_-101" value="&lt;font style=&quot;font-size: 8px;&quot;&gt;Right-button pressed&lt;/font&gt;&lt;div&gt;&lt;font style=&quot;font-size: 8px;&quot;&gt;or CA command rcvd&lt;/font&gt;&lt;/div&gt;&lt;div&gt;&lt;font style=&quot;font-size: 8px;&quot;&gt;(First time)&lt;/font&gt;&lt;/div&gt;" style="rhombus;whiteSpace=wrap;html=1;" vertex="1" parent="1">
          <mxGeometry x="1100" y="290" width="100" height="100" as="geometry" />
        </mxCell>
        <mxCell id="m0eHRfGt-rSkYaeha5d_-102" value="stop flashing D2:&lt;div&gt;keep led on&lt;/div&gt;" style="whiteSpace=wrap;html=1;" vertex="1" parent="1">
          <mxGeometry x="890" y="495" width="90" height="45" as="geometry" />
        </mxCell>
        <mxCell id="m0eHRfGt-rSkYaeha5d_-103" style="edgeStyle=orthogonalEdgeStyle;rounded=0;orthogonalLoop=1;jettySize=auto;html=1;" edge="1" parent="1" source="m0eHRfGt-rSkYaeha5d_-70">
          <mxGeometry relative="1" as="geometry">
            <mxPoint x="1100" y="340" as="targetPoint" />
          </mxGeometry>
        </mxCell>
        <mxCell id="m0eHRfGt-rSkYaeha5d_-104" value="FALSE" style="edgeLabel;html=1;align=center;verticalAlign=middle;resizable=0;points=[];" vertex="1" connectable="0" parent="m0eHRfGt-rSkYaeha5d_-103">
          <mxGeometry x="0.2403" y="-3" relative="1" as="geometry">
            <mxPoint as="offset" />
          </mxGeometry>
        </mxCell>
        <mxCell id="m0eHRfGt-rSkYaeha5d_-108" value="" style="endArrow=classic;html=1;rounded=0;entryX=1;entryY=0.5;entryDx=0;entryDy=0;" edge="1" parent="1" target="m0eHRfGt-rSkYaeha5d_-9">
          <mxGeometry width="50" height="50" relative="1" as="geometry">
            <mxPoint x="1150" y="290" as="sourcePoint" />
            <mxPoint x="790" y="340" as="targetPoint" />
            <Array as="points">
              <mxPoint x="1150" y="260" />
            </Array>
          </mxGeometry>
        </mxCell>
        <mxCell id="m0eHRfGt-rSkYaeha5d_-109" value="FALSE" style="edgeLabel;html=1;align=center;verticalAlign=middle;resizable=0;points=[];" vertex="1" connectable="0" parent="m0eHRfGt-rSkYaeha5d_-108">
          <mxGeometry x="-0.0847" y="1" relative="1" as="geometry">
            <mxPoint as="offset" />
          </mxGeometry>
        </mxCell>
        <mxCell id="m0eHRfGt-rSkYaeha5d_-113" value="" style="edgeStyle=orthogonalEdgeStyle;rounded=0;orthogonalLoop=1;jettySize=auto;html=1;" edge="1" parent="1" source="m0eHRfGt-rSkYaeha5d_-110" target="m0eHRfGt-rSkYaeha5d_-111">
          <mxGeometry relative="1" as="geometry" />
        </mxCell>
        <mxCell id="m0eHRfGt-rSkYaeha5d_-110" value="capture current time&lt;div&gt;LED D4 ON&lt;/div&gt;" style="rounded=1;whiteSpace=wrap;html=1;" vertex="1" parent="1">
          <mxGeometry x="1090" y="487.5" width="120" height="60" as="geometry" />
        </mxCell>
        <mxCell id="m0eHRfGt-rSkYaeha5d_-117" value="" style="edgeStyle=orthogonalEdgeStyle;rounded=0;orthogonalLoop=1;jettySize=auto;html=1;" edge="1" parent="1" source="m0eHRfGt-rSkYaeha5d_-111" target="m0eHRfGt-rSkYaeha5d_-116">
          <mxGeometry relative="1" as="geometry" />
        </mxCell>
        <mxCell id="m0eHRfGt-rSkYaeha5d_-123" value="TRUE" style="edgeLabel;html=1;align=center;verticalAlign=middle;resizable=0;points=[];" vertex="1" connectable="0" parent="m0eHRfGt-rSkYaeha5d_-117">
          <mxGeometry x="-0.1316" y="1" relative="1" as="geometry">
            <mxPoint as="offset" />
          </mxGeometry>
        </mxCell>
        <mxCell id="m0eHRfGt-rSkYaeha5d_-119" value="" style="edgeStyle=orthogonalEdgeStyle;rounded=0;orthogonalLoop=1;jettySize=auto;html=1;" edge="1" parent="1" source="m0eHRfGt-rSkYaeha5d_-111" target="m0eHRfGt-rSkYaeha5d_-118">
          <mxGeometry relative="1" as="geometry" />
        </mxCell>
        <mxCell id="m0eHRfGt-rSkYaeha5d_-122" value="FALSE" style="edgeLabel;html=1;align=center;verticalAlign=middle;resizable=0;points=[];" vertex="1" connectable="0" parent="m0eHRfGt-rSkYaeha5d_-119">
          <mxGeometry x="-0.3125" relative="1" as="geometry">
            <mxPoint as="offset" />
          </mxGeometry>
        </mxCell>
        <mxCell id="m0eHRfGt-rSkYaeha5d_-111" value="0&amp;lt;1timepased&amp;lt;5" style="rhombus;whiteSpace=wrap;html=1;" vertex="1" parent="1">
          <mxGeometry x="1075" y="590" width="150" height="120" as="geometry" />
        </mxCell>
        <mxCell id="m0eHRfGt-rSkYaeha5d_-116" value="RUN Environment measure sequence" style="rounded=1;whiteSpace=wrap;html=1;" vertex="1" parent="1">
          <mxGeometry x="1320" y="620" width="120" height="60" as="geometry" />
        </mxCell>
        <mxCell id="m0eHRfGt-rSkYaeha5d_-121" value="" style="edgeStyle=orthogonalEdgeStyle;rounded=0;orthogonalLoop=1;jettySize=auto;html=1;" edge="1" parent="1" source="m0eHRfGt-rSkYaeha5d_-118" target="m0eHRfGt-rSkYaeha5d_-120">
          <mxGeometry relative="1" as="geometry" />
        </mxCell>
        <mxCell id="m0eHRfGt-rSkYaeha5d_-124" value="TRUE" style="edgeLabel;html=1;align=center;verticalAlign=middle;resizable=0;points=[];" vertex="1" connectable="0" parent="m0eHRfGt-rSkYaeha5d_-121">
          <mxGeometry x="-0.2" y="-4" relative="1" as="geometry">
            <mxPoint as="offset" />
          </mxGeometry>
        </mxCell>
        <mxCell id="m0eHRfGt-rSkYaeha5d_-118" value="5&amp;lt;timePassed&amp;lt;10" style="rhombus;whiteSpace=wrap;html=1;" vertex="1" parent="1">
          <mxGeometry x="1070" y="750" width="160" height="150" as="geometry" />
        </mxCell>
        <mxCell id="m0eHRfGt-rSkYaeha5d_-126" value="" style="edgeStyle=orthogonalEdgeStyle;rounded=0;orthogonalLoop=1;jettySize=auto;html=1;" edge="1" parent="1" source="m0eHRfGt-rSkYaeha5d_-120" target="m0eHRfGt-rSkYaeha5d_-125">
          <mxGeometry relative="1" as="geometry" />
        </mxCell>
        <mxCell id="m0eHRfGt-rSkYaeha5d_-120" value="RUN SP Sequence" style="whiteSpace=wrap;html=1;" vertex="1" parent="1">
          <mxGeometry x="1090" y="950" width="120" height="60" as="geometry" />
        </mxCell>
        <mxCell id="m0eHRfGt-rSkYaeha5d_-128" value="" style="edgeStyle=orthogonalEdgeStyle;rounded=0;orthogonalLoop=1;jettySize=auto;html=1;" edge="1" parent="1" source="m0eHRfGt-rSkYaeha5d_-125" target="m0eHRfGt-rSkYaeha5d_-127">
          <mxGeometry relative="1" as="geometry" />
        </mxCell>
        <mxCell id="m0eHRfGt-rSkYaeha5d_-125" value="Time Paseed &amp;gt;10" style="rhombus;whiteSpace=wrap;html=1;" vertex="1" parent="1">
          <mxGeometry x="1085" y="1080" width="130" height="130" as="geometry" />
        </mxCell>
        <mxCell id="m0eHRfGt-rSkYaeha5d_-133" value="" style="edgeStyle=orthogonalEdgeStyle;rounded=0;orthogonalLoop=1;jettySize=auto;html=1;" edge="1" parent="1" source="m0eHRfGt-rSkYaeha5d_-127" target="m0eHRfGt-rSkYaeha5d_-132">
          <mxGeometry relative="1" as="geometry" />
        </mxCell>
        <mxCell id="m0eHRfGt-rSkYaeha5d_-127" value="End calibration. Stop Flashing LED D4" style="whiteSpace=wrap;html=1;" vertex="1" parent="1">
          <mxGeometry x="1090" y="1325" width="120" height="60" as="geometry" />
        </mxCell>
        <mxCell id="m0eHRfGt-rSkYaeha5d_-130" value="" style="endArrow=classic;html=1;rounded=0;exitX=0;exitY=0.5;exitDx=0;exitDy=0;entryX=0;entryY=0.5;entryDx=0;entryDy=0;" edge="1" parent="1" source="m0eHRfGt-rSkYaeha5d_-125" target="m0eHRfGt-rSkYaeha5d_-120">
          <mxGeometry width="50" height="50" relative="1" as="geometry">
            <mxPoint x="1080" y="1150" as="sourcePoint" />
            <mxPoint x="1080" y="980" as="targetPoint" />
            <Array as="points">
              <mxPoint x="1010" y="1145" />
              <mxPoint x="1010" y="980" />
            </Array>
          </mxGeometry>
        </mxCell>
        <mxCell id="m0eHRfGt-rSkYaeha5d_-131" value="FALSE" style="edgeLabel;html=1;align=center;verticalAlign=middle;resizable=0;points=[];" vertex="1" connectable="0" parent="m0eHRfGt-rSkYaeha5d_-130">
          <mxGeometry x="0.1411" y="-1" relative="1" as="geometry">
            <mxPoint as="offset" />
          </mxGeometry>
        </mxCell>
        <mxCell id="m0eHRfGt-rSkYaeha5d_-132" value="" style="ellipse;whiteSpace=wrap;html=1;" vertex="1" parent="1">
          <mxGeometry x="1140" y="1455" width="20" height="15" as="geometry" />
        </mxCell>
      </root>
    </mxGraphModel>
  </diagram>
</mxfile>
